<svg width="20" height="20" viewBox="0 0 20 20" fill="none" xmlns="http://www.w3.org/2000/svg">
<g clip-path="url(#clip0_4057_15748)">
<g clip-path="url(#clip1_4057_15748)">
<g clip-path="url(#clip2_4057_15748)">
<g clip-path="url(#clip3_4057_15748)">
<rect width="20" height="20" rx="4.16667" fill="#1A7EF2"/>
<g clip-path="url(#clip4_4057_15748)">
<path d="M15.8333 0H4.16667C3.062 0.00132321 2.00296 0.440735 1.22185 1.22185C0.440735 2.00296 0.00132321 3.062 0 4.16667L0 15.8333C0.00132321 16.938 0.440735 17.997 1.22185 18.7782C2.00296 19.5593 3.062 19.9987 4.16667 20H15.8333C16.938 19.9987 17.997 19.5593 18.7782 18.7782C19.5593 17.997 19.9987 16.938 20 15.8333V4.16667C19.9987 3.062 19.5593 2.00296 18.7782 1.22185C17.997 0.440735 16.938 0.00132321 15.8333 0ZM18.3333 15.8333C18.3333 16.4964 18.0699 17.1323 17.6011 17.6011C17.1323 18.0699 16.4964 18.3333 15.8333 18.3333H4.16667C3.50363 18.3333 2.86774 18.0699 2.3989 17.6011C1.93006 17.1323 1.66667 16.4964 1.66667 15.8333V4.16667C1.66667 3.50363 1.93006 2.86774 2.3989 2.3989C2.86774 1.93006 3.50363 1.66667 4.16667 1.66667H15.8333C16.4964 1.66667 17.1323 1.93006 17.6011 2.3989C18.0699 2.86774 18.3333 3.50363 18.3333 4.16667V15.8333Z" fill="#1A7EF2"/>
<path d="M7.77751 13.2655L4.51168 9.99968C4.3554 9.84345 4.14348 9.75569 3.92251 9.75569C3.70154 9.75569 3.48962 9.84345 3.33334 9.99968C3.17712 10.156 3.08936 10.3679 3.08936 10.5888C3.08936 10.8098 3.17712 11.0217 3.33334 11.178L6.59918 14.4438C6.75395 14.5987 6.93771 14.7215 7.13997 14.8053C7.34222 14.8891 7.559 14.9322 7.77793 14.9322C7.99685 14.9322 8.21364 14.8891 8.41589 14.8053C8.61814 14.7215 8.8019 14.5987 8.95668 14.4438L16.6667 6.73385C16.8229 6.57757 16.9107 6.36565 16.9107 6.14468C16.9107 5.92371 16.8229 5.71178 16.6667 5.55551C16.5104 5.39929 16.2985 5.31152 16.0775 5.31152C15.8565 5.31152 15.6446 5.39929 15.4883 5.55551L7.77751 13.2655Z" fill="white"/>
</g>
</g>
</g>
</g>
</g>
<defs>
<clipPath id="clip0_4057_15748">
<rect width="20" height="20" fill="white"/>
</clipPath>
<clipPath id="clip1_4057_15748">
<rect width="20" height="20" fill="white"/>
</clipPath>
<clipPath id="clip2_4057_15748">
<rect width="20" height="20" fill="white"/>
</clipPath>
<clipPath id="clip3_4057_15748">
<rect width="20" height="20" rx="4.16667" fill="white"/>
</clipPath>
<clipPath id="clip4_4057_15748">
<rect width="20" height="20" fill="white"/>
</clipPath>
</defs>
</svg>
