<svg width="18" height="20" viewBox="0 0 18 20" fill="none" xmlns="http://www.w3.org/2000/svg">
<path d="M16.4998 3.33333H13.9165C13.7231 2.39284 13.2114 1.54779 12.4675 0.940598C11.7237 0.333408 10.7933 0.0012121 9.83317 0L8.1665 0C7.20633 0.0012121 6.27594 0.333408 5.53213 0.940598C4.78832 1.54779 4.27658 2.39284 4.08317 3.33333H1.49984C1.27882 3.33333 1.06686 3.42113 0.910582 3.57741C0.754301 3.73369 0.666504 3.94565 0.666504 4.16667C0.666504 4.38768 0.754301 4.59964 0.910582 4.75592C1.06686 4.9122 1.27882 5 1.49984 5H2.33317V15.8333C2.33449 16.938 2.77391 17.997 3.55502 18.7782C4.33614 19.5593 5.39517 19.9987 6.49984 20H11.4998C12.6045 19.9987 13.6635 19.5593 14.4447 18.7782C15.2258 17.997 15.6652 16.938 15.6665 15.8333V5H16.4998C16.7209 5 16.9328 4.9122 17.0891 4.75592C17.2454 4.59964 17.3332 4.38768 17.3332 4.16667C17.3332 3.94565 17.2454 3.73369 17.0891 3.57741C16.9328 3.42113 16.7209 3.33333 16.4998 3.33333ZM8.1665 1.66667H9.83317C10.3501 1.6673 10.8541 1.82781 11.2762 2.1262C11.6983 2.42459 12.0177 2.84624 12.1907 3.33333H5.809C5.98199 2.84624 6.30142 2.42459 6.72349 2.1262C7.14556 1.82781 7.64961 1.6673 8.1665 1.66667ZM13.9998 15.8333C13.9998 16.4964 13.7364 17.1323 13.2676 17.6011C12.7988 18.0699 12.1629 18.3333 11.4998 18.3333H6.49984C5.8368 18.3333 5.20091 18.0699 4.73207 17.6011C4.26323 17.1323 3.99984 16.4964 3.99984 15.8333V5H13.9998V15.8333Z" fill="#FF3B30"/>
<path d="M7.33333 14.9997C7.55435 14.9997 7.76631 14.9119 7.92259 14.7556C8.07887 14.5993 8.16667 14.3874 8.16667 14.1663V9.16634C8.16667 8.94533 8.07887 8.73337 7.92259 8.57709C7.76631 8.42081 7.55435 8.33301 7.33333 8.33301C7.11232 8.33301 6.90036 8.42081 6.74408 8.57709C6.5878 8.73337 6.5 8.94533 6.5 9.16634V14.1663C6.5 14.3874 6.5878 14.5993 6.74408 14.7556C6.90036 14.9119 7.11232 14.9997 7.33333 14.9997ZM10.6667 14.9997C10.8877 14.9997 11.0996 14.9119 11.2559 14.7556C11.4122 14.5993 11.5 14.3874 11.5 14.1663V9.16634C11.5 8.94533 11.4122 8.73337 11.2559 8.57709C11.0996 8.42081 10.8877 8.33301 10.6667 8.33301C10.4457 8.33301 10.2337 8.42081 10.0774 8.57709C9.92113 8.73337 9.83333 8.94533 9.83333 9.16634V14.1663C9.83333 14.3874 9.92113 14.5993 10.0774 14.7556C10.2337 14.9119 10.4457 14.9997 10.6667 14.9997Z" fill="#FF3B30"/>
</svg>
