<svg width="9" height="13" viewBox="0 0 9 13" fill="none" xmlns="http://www.w3.org/2000/svg">
<path d="M6.97781 6.832C7.72448 7.26933 8.09781 7.99467 8.09781 9.008C8.09781 9.40267 8.02315 9.78133 7.87381 10.144C7.72448 10.496 7.50581 10.8 7.21781 11.056C6.68448 11.5893 5.95915 11.8987 5.04181 11.984V12.896H3.95381V11.968C3.10048 11.8507 2.41781 11.552 1.90581 11.072C1.35115 10.56 1.01515 9.86133 0.897813 8.976H2.00181C2.09781 9.53067 2.31648 9.968 2.65781 10.288C2.99915 10.5973 3.43115 10.7893 3.95381 10.864V7.2C2.15115 6.944 1.24981 5.99467 1.24981 4.352C1.24981 3.936 1.31915 3.54133 1.45781 3.168C1.59648 2.79467 1.79915 2.47467 2.06581 2.208C2.54581 1.73867 3.17515 1.46667 3.95381 1.392V0.464H5.04181V1.392C5.96981 1.47733 6.68448 1.808 7.18581 2.384C7.68715 2.94933 7.98048 3.63733 8.06581 4.448H6.96181C6.90848 4.064 6.78581 3.71733 6.59381 3.408C6.26315 2.87467 5.74581 2.56 5.04181 2.464V6.208C5.88448 6.31467 6.52981 6.52267 6.97781 6.832ZM2.32181 4.352C2.32181 4.91733 2.46581 5.328 2.75381 5.584C3.05248 5.84 3.45248 6.00533 3.95381 6.08V2.48C3.47381 2.544 3.10048 2.70933 2.83381 2.976C2.64181 3.17867 2.50848 3.408 2.43381 3.664C2.35915 3.90933 2.32181 4.13867 2.32181 4.352ZM5.04181 10.896C5.63915 10.8213 6.11381 10.6133 6.46581 10.272C6.82848 9.93067 7.00981 9.50933 7.00981 9.008C7.00981 8.528 6.87115 8.15467 6.59381 7.888C6.32715 7.62133 5.80981 7.42933 5.04181 7.312V10.896Z" fill="white"/>
</svg>
